<svg width="990" height="714" viewBox="0 0 990 714" fill="none" xmlns="http://www.w3.org/2000/svg">
<path d="M0 413C0 407.477 4.47715 403 10 403H360V579C360 653.558 299.558 714 225 714H10C4.47716 714 0 709.523 0 704V413Z" fill="white"/>
<path d="M729 403H403V565C403 639.558 463.442 700 538 700H719C724.523 700 729 695.523 729 690V403Z" fill="white"/>
<path d="M128 104C128 98.4771 132.477 94 138 94H444C449.523 94 454 98.4772 454 104V405H286C198.739 405 128 334.261 128 247V104Z" fill="white"/>
<path d="M870 104C870 98.4771 865.523 94 860 94H562C533.281 94 510 117.281 510 146V405H860C865.523 405 870 400.523 870 395V104Z" fill="white"/>
<circle cx="942.061" cy="47.0605" r="45.4707" stroke="white" stroke-width="3.17977"/>
<path d="M915.969 36.7354V33.3348H936.232V36.7354H928.063V59.5166H924.125V36.7354H915.969ZM940.709 33.3348H945.503L953.839 53.6871H954.146L962.481 33.3348H967.275V59.5166H963.516V40.5706H963.273L955.552 59.4782H952.432L944.711 40.5578H944.468V59.5166H940.709V33.3348Z" fill="white"/>
</svg>
